<svg id="圖層_1" data-name="圖層 1" xmlns="http://www.w3.org/2000/svg" xmlns:xlink="http://www.w3.org/1999/xlink" viewBox="0 0 1280 72"><defs><style>.cls-1{fill:url(#未命名漸層_26);}.cls-2{fill:#ffe6ca;}.cls-2,.cls-3{opacity:0.8;}.cls-3{fill:#fff;}</style><linearGradient id="未命名漸層_26" x1="640" y1="14.09" x2="640" y2="54.96" gradientUnits="userSpaceOnUse"><stop offset="0" stop-color="#fff3e6"/><stop offset="1" stop-color="#ffd9aa"/></linearGradient></defs><title>ocean</title><rect class="cls-1" y="16" width="1280" height="33"/><path class="cls-2" d="M1280,40.41v20.5q-27.78-.33-58.48-1.47c-171.77-6.52-241,4.63-346.3,5.25-86.46.5-139.78-5.71-198.78-10.38-61.89-4.89-130-8.08-249.23,0-18,1.22-37.12,2.68-57.57,4.45C127.41,79.63,86.81,72.28,0,60.88V28.24a418,418,0,0,1,60.18-2.72c11.36.34,23.08,1.2,35.22,2.67,1.53.19,3.07.38,4.62.59,104.33,13.94,108.75,31.09,336.16,7s335.3,13.4,415.89,7,130.47-10.21,267.36-3.81C1188.16,42.14,1242.71,41.68,1280,40.41Z"/><path class="cls-3" d="M1280,10.57V24.48q-27.78-.23-58.48-1c-171.77-4.42-241,3.14-346.3,3.56C684.38,27.8,655,6.34,369.64,23,222.07,31.65,149.34,33.17,95.4,31.28c-12.52-.43-24-1.05-35.22-1.81-19.75-1.32-38.53-3.08-60.18-5V2.31a587.2,587.2,0,0,1,100,.37c104.33,9.46,108.75,21.09,336.16,4.73s335.3,9.09,415.89,4.75,130.47-6.93,267.36-2.59C1188.16,11.74,1242.71,11.43,1280,10.57Z"/></svg>