<svg id="圖層_1" data-name="圖層 1" xmlns="http://www.w3.org/2000/svg" viewBox="0 0 230 230"><defs><style>.cls-1,.cls-2{fill:none;stroke:#ff6550;stroke-linejoin:round;stroke-width:2px;}.cls-1{stroke-linecap:round;}</style></defs><title>ocean</title><path class="cls-1" d="M76,171a40,40,0,0,1,80,0Z"/><path class="cls-1" d="M42.3,137.27l-3.82,14.25,20.05-5.37a26.43,26.43,0,1,1-16.23-8.88Z"/><path class="cls-1" d="M191.5,137a26.5,26.5,0,1,1-20,9.15l20.05,5.37-3.82-14.25A26.45,26.45,0,0,1,191.5,137Z"/><path class="cls-1" d="M154.43,159.87c9.63-8.58,15.57-20.36,15.57-33.37a43.09,43.09,0,0,0-8-24.89C152.49,88,135.44,79,116,79s-36.49,9-46,22.61a43.09,43.09,0,0,0-8,24.89c0,13,5.94,24.79,15.57,33.37"/><path class="cls-1" d="M162,101.61v-.11c0-20.13-12.13-37.34-29.26-44.25a44.74,44.74,0,0,0-33.48,0C82.13,64.16,70,81.37,70,101.5v.11"/><path class="cls-1" d="M99.26,57.25C103.09,46.77,109.16,40,116,40s12.91,6.77,16.74,17.25"/><line class="cls-1" x1="78.25" y1="157.77" x2="78.24" y2="157.77"/><path class="cls-1" d="M61.58,176.51A54.93,54.93,0,0,0,69,177c9.83,0,18.28-2.46,22-6"/><path class="cls-1" d="M47.4,188.46c4.93,2.45,16.89.56,29.61-5.05,8.36-3.69,15.31-8.22,19.52-12.41"/><path class="cls-1" d="M137.94,171c3.71,3.54,12.16,6,22,6a54.93,54.93,0,0,0,7.42-.49"/><path class="cls-1" d="M132.4,171c4.21,4.19,11.16,8.72,19.52,12.41,12.72,5.61,24.68,7.5,29.61,5.05"/><line class="cls-1" x1="92" y1="130" x2="97" y2="147"/><circle class="cls-2" cx="89.86" cy="123.93" r="6.16"/><line class="cls-1" x1="138.7" y1="130" x2="133.7" y2="147"/><circle class="cls-2" cx="140.84" cy="123.93" r="6.16"/></svg>