<svg id="圖層_1" data-name="圖層 1" xmlns="http://www.w3.org/2000/svg" viewBox="0 0 230 230"><defs><style>.cls-1{fill:none;stroke:#ff6550;stroke-linejoin:round;stroke-width:2px;}</style></defs><title>ocean</title><path class="cls-1" d="M221.21,110.49h2.57a3.22,3.22,0,0,1,1.92,5.8,1.91,1.91,0,0,1,.36.29,3.22,3.22,0,0,1-2.28,5.5h-3.51"/><path class="cls-1" d="M180.15,83.42A83,83,0,0,0,174.22,115a83,83,0,0,0,5.93,31.58"/><path class="cls-1" d="M164.81,80.34c-4.6,9.54-7.33,21.58-7.33,34.66s2.73,25.12,7.33,34.66"/><path class="cls-1" d="M126.68,151.42a162.18,162.18,0,0,1-4-36.42,162.18,162.18,0,0,1,4-36.42"/><path class="cls-1" d="M112.22,150.12A163.73,163.73,0,0,1,108.56,115a163.73,163.73,0,0,1,3.66-35.12"/><path class="cls-1" d="M77.58,88.73h0A147.79,147.79,0,0,0,75.34,115a147.79,147.79,0,0,0,2.24,26.26h0"/><path class="cls-1" d="M68.91,137a158.06,158.06,0,0,1,0-44"/><path class="cls-1" d="M136.89,151.69c46.92,0,85-16.43,85-36.69s-38-36.69-85-36.69c-39.32,0-72.39,11.54-82.09,27.19a13,13,0,0,1-13.28.91C38,101.16,31.27,97.62,23.6,97.62,12.22,97.62,3,105.4,3,115s9.22,17.38,20.6,17.38c7.54,0,14.13-3.41,17.72-8.52a13,13,0,0,1,13.7,1C65,140.34,97.87,151.69,136.89,151.69Z"/><path class="cls-1" d="M16.08,131.57a24,24,0,0,1,0-33.14"/><path class="cls-1" d="M153,79,140.53,59.89a11.28,11.28,0,0,0-18.87,0L108.18,80.46"/><path class="cls-1" d="M153,151l-12.51,19.09a11.28,11.28,0,0,1-18.87,0l-13.48-20.57"/><path class="cls-1" d="M59.46,99.87c-5.36-7.32-5.53-16.77,0-22.34,6.28-6.29,17.5-5.27,25,2.27a22.88,22.88,0,0,1,3.84,5.08"/><path class="cls-1" d="M88.94,145.29a22.25,22.25,0,0,1-4.4,6.19C77,159,65.78,160,59.5,153.76c-5.77-5.77-5.38-15.68.54-23.09"/><circle class="cls-1" cx="196.75" cy="105.99" r="5.79"/></svg>