<svg id="圖層_1" data-name="圖層 1" xmlns="http://www.w3.org/2000/svg" viewBox="0 0 1262 77"><defs><style>.cls-1{fill:#c2e248;}.cls-2{fill:#73b50b;}.cls-3{fill:#fff6df;}</style></defs><title>ground</title><rect class="cls-1" x="-11" y="-12" width="1301" height="89"/><path class="cls-2" d="M1044,36.8c-2.87,2.8-7.13,3.49-11.11,4q-16.76,2.12-33.55,3.19c-84.2,5.59-169-6.17-253.73-10.63-21.35-1.13-42.71-1.79-64-1.59-46.35.42-92.56,4.9-138.87,7.14l-7.32.35c-60.53,2.79-124.38,4-186-1.92-22-2.12-43.68-5.16-64.85-9.37,16.67-10.17,52.3-5.9,71.76-6.82q40.73-1.91,81.5-2.44,8.21-.12,16.4-.19c38.1-.38,76.22-.08,114.33.49h0c124.45,1.85,249,6.6,373.22.63,33.33,0,66.67-.15,100-.61C1046.83,23.65,1048.88,32.07,1044,36.8Z"/><path class="cls-3" d="M1268.71,4.84c-3.84-1.28-6.78-4.29-10.33-6.26A80.31,80.31,0,0,0,1245.89-7c-19.57-6.78-41-7.13-61.88-7.4l-424.6-5.55c-104.3-1.36-208.77-2.73-312.77,4.58-38.51,2.7-76.95,6.59-115.55,7.9-77.71,2.65-155.25-5-232.93-4.86-39,.08-79.53,1.19-117.84,8.76-9.19,1.83-18,4-20.88,9-3,0-6,0-9,0,2.64,1,5.3,2,8,3l.25.08.18.07A352,352,0,0,0,6.15,21.17q8.24,1.65,16.65,3Q34,26,45.41,27.48q6.31.8,12.66,1.49c8.46.93,16.94,1.72,25.4,2.42q6.33.52,12.65,1c23.34,1.69,46.22,2.74,67.49,3.85,45.64,2.38,91.57,2.28,137-2.73,2-.22,4-.47,6.05-.71,1-.12,2-.23,3-.36q3.75-.46,7.5-1c2.82-.39,5.64-.8,8.45-1.21,6.19-.89,12.36-1.83,18.54-2.75,9.27-1.38,18.54-2.71,27.83-3.8s18.63-1.93,28-2.32a358.48,358.48,0,0,1,39.75.7c5.67.38,11.33.87,17,1.43,11.32,1.12,22.64,2.52,33.95,4l17.05,2.22c6.55.85,13.1,1.68,19.66,2.44l2.06.24,6.33.7,4.54.48c4.69.48,9.37.9,14.07,1.3a792.9,792.9,0,0,0,117,1.06l5.71-.39q4.83-.36,9.66-.76c3.21-.27,6.43-.57,9.64-.88q9.64-.93,19.25-2.1c2.45-.3,4.89-.61,7.34-.93l7.33-1q7.32-1,14.64-2.09l1.41-.2.82-.11,8.23-1.21c27.77-4.06,55.54-8,83.6-8.56,4.64-.09,9.26-.08,13.89,0,32.36.6,64.49,5.2,96.62,9.77q10.23,1.45,20.47,2.86,5.49.75,11,1.45c3.17.41,6.33.8,9.5,1.18q7.51.89,15,1.64,12.54,1.28,25.09,2.24,4.49.34,9,.65c1.71.13,3.44.24,5.16.35,27.6,1.77,55.29,2.55,83,2.79,34.45.29,69-.26,103.39-.81,15-.24,31.57-1.52,46.51-5.24l1-.27c2.68-.68,5.28-1.45,7.84-2.32a84.14,84.14,0,0,0,11-4.52,56.89,56.89,0,0,0,11.75-7.73c.63-.51,1.23-1.06,1.82-1.63V2.36q-11.14.87-22.3,1.65c-2.67.18-5.33.13-8,.49a57.09,57.09,0,0,1-8.35,1A11.59,11.59,0,0,1,1268.71,4.84Z"/></svg>