<svg id="圖層_1" data-name="圖層 1" xmlns="http://www.w3.org/2000/svg" viewBox="0 0 196 226"><defs><style>.cls-1,.cls-8{fill:none;stroke-linecap:round;stroke-linejoin:round;}.cls-1{stroke:#fff;stroke-width:2px;}.cls-2{fill:#08477c;}.cls-3{fill:#105787;}.cls-4{fill:#f1fbff;}.cls-5{fill:#ff6550;}.cls-6,.cls-7{fill:#fff;}.cls-7{opacity:0.23;}.cls-8{stroke:#08477c;stroke-width:3px;}</style></defs><title>sailboat</title><line class="cls-1" x1="119.88" y1="214.11" x2="30.88" y2="214.11"/><path class="cls-1" d="M24.88,214.11a3,3,0,0,1,6,0"/><line class="cls-1" x1="108.88" y1="219.11" x2="19.88" y2="219.11"/><path class="cls-1" d="M13.88,219.11a3,3,0,0,1,6,0"/><line class="cls-1" x1="34.88" y1="224.11" x2="7.88" y2="224.11"/><path class="cls-1" d="M1.88,224.11a3,3,0,0,1,6,0"/><path class="cls-2" d="M194.12,218.11H52.33L37.42,199.94H173C183,199.94,194.12,208.12,194.12,218.11Z"/><path class="cls-3" d="M37.42,199.94l1.64,2H171c9.32,0,19.66,7.11,21,16.17h2.15c0-10-11.17-18.17-21.17-18.17Z"/><circle class="cls-4" cx="143.28" cy="210.03" r="3"/><circle class="cls-4" cx="154.28" cy="210.03" r="3"/><circle class="cls-4" cx="165.28" cy="210.03" r="3"/><polygon class="cls-5" points="130.33 13.8 109.7 1.89 109.7 25.71 130.33 13.8"/><path class="cls-4" d="M178,169.11,108.62,169V33.91c42.12,25.4,59,63.07,65.56,92.2.08.34.15.67.22,1,.46,2,.87,4,1.21,6,.19,1,.37,2,.53,3,.9,5.53,1.44,10.59,1.75,15,.08,1,.14,2,.19,3,.12,2.21.17,4.22.19,6,0,.34,0,.67,0,1C178.31,166.19,178,169.11,178,169.11Z"/><path class="cls-6" d="M178,169.11h-6c0-.23.27-3.12.24-8,0-.33,0-.66,0-1,0-1.78-.07-3.79-.19-6-.05-1-.11-2-.19-3-.31-4.41-.85-9.47-1.75-15-.16-1-.34-2-.53-3-.34-2-.75-4-1.21-6-.07-.33-.14-.66-.22-1C161.9,98.4,146.36,63,108.62,37.72V33.91c42.12,25.4,59,63.07,65.56,92.2.08.34.15.67.22,1,.46,2,.87,4,1.21,6,.19,1,.37,2,.53,3,.9,5.53,1.44,10.59,1.75,15,.08,1,.14,2,.19,3,.12,2.21.17,4.22.19,6,0,.34,0,.67,0,1C178.31,166.19,178,169.11,178,169.11Z"/><path class="cls-5" d="M177.89,151.11H108.44v-24h66c.46,2,.87,4,1.21,6,.19,1,.37,2,.53,3C177,141.64,177.58,146.7,177.89,151.11Z"/><path class="cls-2" d="M178.28,161.11H108.62v-7h69.46c.12,2.21.17,4.22.19,6C178.28,160.45,178.28,160.78,178.28,161.11Z"/><path class="cls-7" d="M177.89,151.11h-6c-.31-4.41-.85-9.47-1.75-15-.16-1-.34-2-.53-3-.34-2-.75-4-1.21-6h6c.46,2,.87,4,1.21,6,.19,1,.37,2,.53,3C177,141.64,177.58,146.7,177.89,151.11Z"/><path class="cls-7" d="M178.28,161.11h-6c0-.33,0-.66,0-1,0-1.78-.07-3.79-.19-6h6c.12,2.21.17,4.22.19,6C178.28,160.45,178.28,160.78,178.28,161.11Z"/><path class="cls-4" d="M109,34.11v135H37S109,123.11,109,34.11Z"/><path class="cls-6" d="M109,34.11v43.3c-17.29,60.58-66,91.7-66,91.7H37S109,123.11,109,34.11Z"/><line class="cls-8" x1="108.61" y1="207.31" x2="108.61" y2="2.01"/></svg>