<svg id="圖層_1" data-name="圖層 1" xmlns="http://www.w3.org/2000/svg" viewBox="0 0 196 226"><defs><style>.cls-1,.cls-8{fill:none;stroke-linecap:round;stroke-linejoin:round;}.cls-1{stroke:#fff;stroke-width:2px;}.cls-2{fill:#08477c;}.cls-3{fill:#105787;}.cls-4{fill:#f1fbff;}.cls-5{fill:#ff6550;}.cls-6,.cls-7{fill:#fff;}.cls-7{opacity:0.23;}.cls-8{stroke:#08477c;stroke-width:3px;}</style></defs><title>sailboat</title><line class="cls-1" x1="76.12" y1="214.11" x2="165.12" y2="214.11"/><path class="cls-1" d="M165.12,214.11a3,3,0,0,1,6,0"/><line class="cls-1" x1="87.12" y1="219.11" x2="176.12" y2="219.11"/><path class="cls-1" d="M176.12,219.11a3,3,0,0,1,6,0"/><line class="cls-1" x1="161.12" y1="224.11" x2="188.12" y2="224.11"/><path class="cls-1" d="M188.12,224.11a3,3,0,0,1,6,0"/><path class="cls-2" d="M1.88,218.11H143.67l14.91-18.17H23.05C13.05,199.94,1.88,208.12,1.88,218.11Z"/><path class="cls-3" d="M158.58,199.94l-1.64,2H25.05c-9.32,0-19.66,7.11-21,16.17H1.88c0-10,11.17-18.17,21.17-18.17Z"/><circle class="cls-4" cx="52.72" cy="210.03" r="3"/><circle class="cls-4" cx="41.72" cy="210.03" r="3"/><circle class="cls-4" cx="30.72" cy="210.03" r="3"/><polygon class="cls-5" points="66.67 13.8 87.3 1.89 87.3 25.71 66.67 13.8"/><path class="cls-4" d="M18,169.11,87.38,169V33.91c-42.12,25.4-59,63.07-65.56,92.2-.08.34-.15.67-.22,1-.46,2-.87,4-1.21,6-.19,1-.37,2-.53,3-.9,5.53-1.44,10.59-1.75,15-.08,1-.14,2-.19,3-.12,2.21-.17,4.22-.19,6,0,.34,0,.67,0,1C17.69,166.19,18,169.11,18,169.11Z"/><path class="cls-6" d="M18,169.11h6c0-.23-.27-3.12-.24-8,0-.33,0-.66,0-1,0-1.78.07-3.79.19-6,0-1,.11-2,.19-3,.31-4.41.85-9.47,1.75-15,.16-1,.34-2,.53-3,.34-2,.75-4,1.21-6,.07-.33.14-.66.22-1C34.1,98.4,49.64,63,87.38,37.72V33.91c-42.12,25.4-59,63.07-65.56,92.2-.08.34-.15.67-.22,1-.46,2-.87,4-1.21,6-.19,1-.37,2-.53,3-.9,5.53-1.44,10.59-1.75,15-.08,1-.14,2-.19,3-.12,2.21-.17,4.22-.19,6,0,.34,0,.67,0,1C17.69,166.19,18,169.11,18,169.11Z"/><path class="cls-5" d="M18.11,151.11H87.56v-24h-66c-.46,2-.87,4-1.21,6-.19,1-.37,2-.53,3C19,141.64,18.42,146.7,18.11,151.11Z"/><path class="cls-2" d="M17.3,161.11H87v-7H17.5c-.12,2.21-.17,4.22-.19,6C17.3,160.45,17.3,160.78,17.3,161.11Z"/><path class="cls-7" d="M18.11,151.11h6c.31-4.41.85-9.47,1.75-15,.16-1,.34-2,.53-3,.34-2,.75-4,1.21-6h-6c-.46,2-.87,4-1.21,6-.19,1-.37,2-.53,3C19,141.64,18.42,146.7,18.11,151.11Z"/><path class="cls-7" d="M17.3,161.11h6c0-.33,0-.66,0-1,0-1.78.07-3.79.19-6h-6c-.12,2.21-.17,4.22-.19,6C17.3,160.45,17.3,160.78,17.3,161.11Z"/><path class="cls-4" d="M87,34.11v135h72S87,123.11,87,34.11Z"/><path class="cls-6" d="M87,34.11v43.3c17.29,60.58,66,91.7,66,91.7h6S87,123.11,87,34.11Z"/><line class="cls-8" x1="87.39" y1="207.31" x2="87.39" y2="2.01"/></svg>