<svg id="圖層_1" data-name="圖層 1" xmlns="http://www.w3.org/2000/svg" viewBox="0 0 256 338"><defs><style>.cls-1{fill:#66b003;}.cls-2{fill:#2d8e3d;}.cls-3{fill:#72b509;}.cls-4{fill:#73b50b;}.cls-5{fill:#67a802;}.cls-6{fill:#945f42;}.cls-7{fill:#605342;}.cls-8{fill:#f1eac1;}.cls-9{fill:#efdec2;}.cls-10{fill:#ddd3a4;}</style></defs><title>tree</title><path class="cls-1" d="M106.29,128.51s-2.9,29,29,35.43c0,0,2-2.56-1.7-7.49,0,0-1.45-1.77.78-1.22,0,0,3.51,3.93,4.57,6.31s8.54,12.24,20.2,12.76c0,0,1.77-1.45-2.74-5.16,0,0-1.67-2.77,1.77-1.45s1.87,10.6,20.59,12.15c0,0,1.16-1.84-.52-4.61s2.23.55,2.23.55,12.37,18,32.41,8c.11,0,.27-.27.31-.16h0s-.77-15-22.29-24.35c0,0-3.61.29-.84-1.39a3.11,3.11,0,0,0,2.77-1.67c1.16-1.84-10.44-16-19.75-10.76a5,5,0,0,1,4.71-4.73c4.6-.52-14.21-14.11-21.52-9.31s-7.83.19-7.83.19,6.22-.35,6.54-3.57-12.63-7.12-20.23-5.93S106.5,124.79,106.29,128.51Z"/><path class="cls-2" d="M181,171.93c1.68,2.77.52,4.61.52,4.61l-.51,0c2.59,3.25,14.28,16,31.89,7.27.09-.06.25-.26.3-.16a11.68,11.68,0,0,0-.31-1.93c-18.42,7.14-29.67-9.19-29.67-9.19S179.32,169.16,181,171.93Z"/><path class="cls-2" d="M161.89,171l-1.1-.08c1.92,3.27,5.28,7.87,18,8.92a4.13,4.13,0,0,0,0-3.61c-15.81-2.18-14.56-10.58-17.83-11.83-3.45-1.32-1.77,1.44-1.77,1.44C163.66,169.54,161.89,171,161.89,171Z"/><path class="cls-2" d="M136.35,153.15c2.91,3.84,2.31,6.25,1.9,7.12a11.81,11.81,0,0,1,.69,1.28c1.06,2.38,8.54,12.24,20.2,12.75,0,0,1.36-1.11-1.33-3.88-9.31-2.23-15.19-10.08-16.12-12.17-1.06-2.39-4.57-6.32-4.57-6.32C134.89,151.38,136.35,153.15,136.35,153.15Z"/><path class="cls-3" d="M105.81,139.74s24.58,28.87,59.38,4.76c0,0-.55-4.23-8.55-5.17,0,0-3-.23-.45-1.82,0,0,6.86.25,10.05,1.4s19.18,3,30.18-7.44c0,0,.24-3-7.3-2.08,0,0-4.11-.93.24-3s11.62,7.8,29.95-8.36c0,0-.68-2.74-4.78-3.67S217,112.8,217,112.8s28,4.62,36.73-23.21c0-.14,0-.48.13-.43h0s-14.8-12.84-42.94-1c0,0-3,3.64-2.06-.47a4.06,4.06,0,0,0,.93-4.11c-.68-2.74-24.43-4.64-27.9,8.82a6.5,6.5,0,0,1-.2-8.68c3.67-4.78-26,.6-28.14,11.79s-6.88,7.52-6.88,7.52,5.27-6.15,2.54-9.36-18.06,5.42-23.8,13.63S102.51,136.19,105.81,139.74Z"/><path class="cls-2" d="M217.28,111.09a7.21,7.21,0,0,1,3.76,2c6.44.09,19.27-1.36,27.55-12.86-11.63,12.11-28.8,9.28-28.8,9.28S213.17,110.16,217.28,111.09Z"/><path class="cls-2" d="M199,127.53c4.66.21,11.08-1.34,20.3-9.47a3.5,3.5,0,0,0-.33-.74c-16.08,12.5-22.78,3.88-26.87,5.8-4.35,2-.24,3-.24,3C197.11,125.47,198.59,126.71,199,127.53Z"/><path class="cls-2" d="M159.39,136c4.12.49,6.26,1.85,7.37,3,4.13,1.14,19.17,2.39,29.66-7.6a1.39,1.39,0,0,0-.27-.82c-10.7,7.67-24.25,6-27.16,5-3.19-1.16-10.05-1.4-10.05-1.4C156.42,135.8,159.39,136,159.39,136Z"/><path class="cls-2" d="M105.81,139.74s24.58,28.86,59.38,4.76a3.31,3.31,0,0,0-.48-1.19c-33.08,20.22-56.15-6.87-56.15-6.87-3.28-3.54,13.73-24.08,19.55-32.37a25.19,25.19,0,0,0-2.66,3.18C119.71,115.45,102.51,136.19,105.81,139.74Z"/><path class="cls-1" d="M120.65,131s18.22-28.66-11.6-52.08c0,0-3.47,1.59-2.17,8.68,0,0,.58,2.61-1.44.87,0,0-1.6-5.93-1.45-9s-2.47-17.22-14.34-23.87c0,0-2.6.58.15,6.8,0,0,.29,3.77-2.6.58s3.61-12-15.06-23.43c0,0-2.17,1.3-1.88,5.07s-2-1.74-2-1.74S64.78,17.71,38.68,17.6c-.14,0-.42.14-.41,0h0s-7.08,16.07,10.43,37c0,0,3.91,1.59.15,1.88a3.66,3.66,0,0,0-3.76.29C42.92,58.11,47.56,79,60,78.36a5.84,5.84,0,0,1-7.38,2.47C47.56,79,60,103,70.14,101.8s8.25,3.9,8.25,3.9-6.66-2.89-8.68.29,9.41,14,18,16.78S118.48,134.76,120.65,131Z"/><path class="cls-4" d="M130.83,144.5s33.15-7.38,28.63-45c0,0-3.58-1.33-7.67,4.61,0,0-1.44,2.25-1.64-.41,0,0,3.07-5.32,5.32-7.37s10.42-13.92,6.74-27c0,0-2.26-1.43-4.71,4.91,0,0-2.45,2.87-2.25-1.43s11.05-5.94,5.92-27.22c0,0-2.45-.61-4.91,2.26s-.2-2.66-.2-2.66,15.38-20.26-3-38.8c-.09-.09-.39-.19-.29-.28h0S136.4,12.42,134,39.63c0,0,1.64,3.89-1.22,1.43a3.65,3.65,0,0,0-2.87-2.45C127.41,38,116,56,125.17,64.39a5.82,5.82,0,0,1-7-3.47C116,56,107.78,81.8,115.77,88.13s3.07,8.6,3.07,8.6-2.66-6.75-6.35-5.93-3.26,16.57.83,24.55S126.64,145.63,130.83,144.5Z"/><path class="cls-2" d="M148,135.07c7.26-6.68,13.6-17.73,11.45-35.6,0,0-3.12-1.16-6.87,3.53,2.69-2.06,4.67-1.33,4.67-1.33C159.18,117.7,154.27,128.25,148,135.07Z"/><path class="cls-2" d="M144.56,12.32a21.79,21.79,0,0,1,6-4.05c-.11.09.19.19.28.28,18.39,18.54,3,38.8,3,38.8s-2.24,5.52.21,2.65S159,47.75,159,47.75C164.1,69,153.25,70.67,153.05,75s2.25,1.43,2.25,1.43c.19-.48.37-.91.55-1.3-.39-.14-.67-.75-.6-2.33.2-4.3,11.05-5.94,5.92-27.22,0,0-2.45-.61-4.91,2.25s-.2-2.65-.2-2.65,15.38-20.26-3-38.8c-.09-.1-.39-.19-.28-.28A24.45,24.45,0,0,0,144.56,12.32Z"/><path class="cls-2" d="M148,105.87c.21,2.66,1.64.41,1.64.41a16.1,16.1,0,0,1,1-1.34c-.22-.11-.39-.47-.45-1.27,0,0,3.07-5.32,5.32-7.37s10.43-13.92,6.74-27c0,0-1.52-1-3.41,2.18a1.38,1.38,0,0,1,1.2,0c3.7,13.09-4.48,25-6.73,27S148,105.87,148,105.87Z"/><path class="cls-5" d="M141.12,140.67s-8.42,32.9-45.91,27.19c0,0-1.21-3.62,4.85-7.52,0,0,2.29-1.36-.36-1.65,0,0-5.41,2.9-7.53,5.08s-14.24,10-27.21,5.89c0,0-1.36-2.3,5.06-4.55,0,0,2.94-2.36-1.36-2.3s-6.29,10.86-27.39,5.06c0,0-.54-2.47,2.4-4.83s-2.65-.29-2.65-.29-20.74,14.73-38.68-4.23c-.09-.1-.18-.39-.28-.3h0s6.87-16.15,34.15-17.74c0,0,3.83,1.76,1.47-1.18a3.67,3.67,0,0,1-2.37-2.94c-.53-2.47,17.83-13.35,25.92-3.88A5.81,5.81,0,0,0,58,125.42c-4.84-2.41,21.2-9.76,27.28-1.58s8.49,3.34,8.49,3.34-6.66-2.88-5.73-6.53,16.67-2.74,24.52,1.6S142.38,136.52,141.12,140.67Z"/><path class="cls-2" d="M69.71,106c-2,3.19,9.41,14,18,16.78s30.82,12,33,8.23a27.88,27.88,0,0,0,1.35-2.51c-5.51,1-24-6.58-31.59-9-7.29-2.35-16.7-10.6-18-14.94A3.41,3.41,0,0,0,69.71,106Z"/><path class="cls-2" d="M70.14,101.8a22.5,22.5,0,0,1,3.5-.16c2.68-1.34,7.5.76,7.5.76s1.88-5.07-8.25-3.91C65.75,99.32,57.45,87.61,55,81.3a7.47,7.47,0,0,1-2.33-.47C47.56,79,60,103,70.14,101.8Z"/><path class="cls-2" d="M55.46,77.56a5.81,5.81,0,0,0,7.29-2.5c-10,.47-15-13-15.4-18.91a4.26,4.26,0,0,0-2.26.66C43.2,57.94,46.45,73.76,55.46,77.56Z"/><path class="cls-2" d="M118.52,84.84c-5.52-4.38-3.33-18-.7-24.44-2.58-1.74-9.2,20.3-2.71,27.14l.13,0c3.68-.83,6.35,5.93,6.35,5.93S126.5,91.17,118.52,84.84Z"/><path class="cls-2" d="M113.32,115.35c4.1,8,13.32,30.28,17.51,29.15,0,0,13.25-2.95,21.85-14.63a41.47,41.47,0,0,1-19.1,11.33c-4.19,1.13-13.41-21.17-17.51-29.15-3-5.92-4-16.11-2.87-21.32a2.52,2.52,0,0,0-.71.07C108.81,91.62,109.23,107.37,113.32,115.35Z"/><path class="cls-2" d="M135.28,163.94s1.05-1.3.28-3.86c-25.65-6.49-26.71-28.39-26.58-33.7-1.64.62-2.65,1.32-2.69,2.13C106.29,128.51,103.39,157.5,135.28,163.94Z"/><path class="cls-2" d="M95.21,167.86c21.16,3.22,33.06-5.85,39.41-14.37-6.83,7.36-18.23,13.88-36.66,11.07a4.34,4.34,0,0,1,.44-3C94.23,165,95.21,167.86,95.21,167.86Z"/><path class="cls-2" d="M65,169.65c13,4.11,25.1-3.69,27.22-5.88s7.53-5.08,7.53-5.08a3.49,3.49,0,0,1,.76.15,15.92,15.92,0,0,1,2.35-1.8s2.3-1.36-.36-1.65c0,0-5.41,2.9-7.53,5.08s-14.24,10-27.22,5.88a1.33,1.33,0,0,1-.08-.23C64,168,65,169.65,65,169.65Z"/><path class="cls-2" d="M41.27,167.87c21.1,5.8,23.08-5,27.39-5.05a6,6,0,0,1,1.49.12,18,18,0,0,1,2.62-1.13s2.94-2.37-1.36-2.29-6.29,10.85-27.39,5a4,4,0,0,1,.28-2.1,5.71,5.71,0,0,1-.63.57C40.73,165.4,41.27,167.87,41.27,167.87Z"/><path class="cls-2" d="M2.06,158.22c.1-.1.19.2.28.3,18,19,38.68,4.23,38.68,4.23s3.23-1.2,3.49-.74a6.83,6.83,0,0,1,1.91-2.27c2.94-2.36-2.65-.3-2.65-.3S23,174.18,5.09,155.22c-.09-.1-.18-.4-.28-.3a16.3,16.3,0,0,1,1.58-2.65A22.06,22.06,0,0,0,2.06,158.22Z"/><path class="cls-2" d="M44.51,162a3.68,3.68,0,0,0-.21.46C44.5,162.24,44.56,162.1,44.51,162Z"/><path class="cls-6" d="M80,336.8l1.38,1.2h60.06c8.57-79.36-12-210-12-210l-10.94,11.29C131.58,237,80,336.8,80,336.8Z"/><path class="cls-7" d="M80,336.8l1.38,1.2h2.46l-1.38-1.2S134.05,237,120.92,139.31l8.82-9.1c-.22-1.43-.34-2.19-.34-2.19l-10.94,11.29C131.58,237,80,336.8,80,336.8Z"/><circle class="cls-8" cx="137.35" cy="138.81" r="13.51"/><circle class="cls-9" cx="114.94" cy="147.91" r="13.51"/><path class="cls-10" d="M101.43,147.9a13.51,13.51,0,0,0,24.4,8,13.51,13.51,0,0,1-17.37-19.86A13.47,13.47,0,0,0,101.43,147.9Z"/><circle class="cls-8" cx="116.9" cy="131.48" r="13.51"/><path class="cls-10" d="M123.83,138.81a13.52,13.52,0,0,0,24.4,8A13.52,13.52,0,0,1,130.86,127,13.52,13.52,0,0,0,123.83,138.81Z"/><path class="cls-10" d="M103.39,131.48a13.51,13.51,0,0,0,24.39,8,13.37,13.37,0,0,1-6.48,1.66,13.51,13.51,0,0,1-10.88-21.52A13.5,13.5,0,0,0,103.39,131.48Z"/></svg>