<svg id="圖層_1" data-name="圖層 1" xmlns="http://www.w3.org/2000/svg" viewBox="0 0 256 338"><defs><style>.cls-1{fill:#389e48;}.cls-2{fill:#2d8e3d;}.cls-3{fill:#45a856;}.cls-4{fill:#3ca751;}.cls-5{fill:#756854;}.cls-6{fill:#605342;}.cls-7{fill:#f1eac1;}.cls-8{fill:#ddd3a4;}</style></defs><title>tree</title><path class="cls-1" d="M149.91,124.73s2.94,29.51-29.52,36.07c0,0-2.09-2.61,1.72-7.63,0,0,1.47-1.8-.79-1.24,0,0-3.57,4-4.66,6.42s-8.69,12.47-20.56,13c0,0-1.8-1.48,2.79-5.25,0,0,1.7-2.82-1.81-1.47s-1.9,10.79-21,12.36c0,0-1.18-1.87.52-4.69s-2.26.55-2.26.55-12.6,18.31-33,8.13c-.1-.05-.26-.27-.31-.16h0s.79-15.32,22.7-24.79c0,0,3.67.3.85-1.41a3.2,3.2,0,0,1-2.82-1.71c-1.18-1.87,10.63-16.29,20.1-11a5.08,5.08,0,0,0-4.78-4.82c-4.69-.52,14.46-14.36,21.9-9.47s8,.19,8,.19-6.33-.36-6.65-3.64,12.85-7.24,20.59-6S149.69,120.94,149.91,124.73Z"/><path class="cls-2" d="M73.85,168.93c-1.7,2.82-.52,4.69-.52,4.69l.51-.05c-2.63,3.31-14.54,16.34-32.46,7.4-.1-.05-.26-.27-.31-.16a13,13,0,0,1,.32-2c18.75,7.27,30.2-9.36,30.2-9.36S75.56,166.11,73.85,168.93Z"/><path class="cls-2" d="M93.3,168l1.12-.08c-2,3.33-5.38,8-18.29,9.08a4.2,4.2,0,0,1,0-3.67c16.1-2.22,14.83-10.77,18.15-12.05,3.52-1.35,1.81,1.47,1.81,1.47C91.49,166.5,93.3,168,93.3,168Z"/><path class="cls-2" d="M119.31,149.81c-3,3.91-2.36,6.36-1.94,7.25a12.37,12.37,0,0,0-.71,1.3c-1.08,2.42-8.69,12.46-20.56,13,0,0-1.39-1.13,1.35-4,9.48-2.27,15.47-10.26,16.41-12.39,1.08-2.43,4.66-6.43,4.66-6.43C120.78,148,119.31,149.81,119.31,149.81Z"/><path class="cls-3" d="M150.39,136.16s-25,29.38-60.45,4.85c0,0,.56-4.31,8.7-5.27,0,0,3-.24.46-1.86,0,0-7,.26-10.23,1.43s-19.53,3.09-30.73-7.57c0,0-.24-3,7.44-2.12,0,0,4.18-1-.24-3s-11.84,7.94-30.5-8.51c0,0,.69-2.79,4.87-3.74s-2.56-1.62-2.56-1.62S8.62,113.43-.24,85.11c0-.15,0-.5-.14-.45h0S14.7,71.59,43.35,83.59c0,0,3,3.71,2.09-.47a4.17,4.17,0,0,1-.95-4.18c.69-2.8,24.88-4.74,28.41,9a6.61,6.61,0,0,0,.2-8.83c-3.73-4.88,26.52.61,28.65,12s7,7.65,7,7.65-5.37-6.26-2.59-9.53,18.4,5.52,24.24,13.88S153.75,132.54,150.39,136.16Z"/><path class="cls-2" d="M36.91,107a7.33,7.33,0,0,0-3.83,2c-6.56.08-19.62-1.39-28-13.1,11.85,12.33,29.32,9.45,29.32,9.45S41.1,106,36.91,107Z"/><path class="cls-2" d="M55.51,123.73c-4.74.21-11.28-1.37-20.67-9.64a3.39,3.39,0,0,1,.34-.76c16.37,12.73,23.19,4,27.36,5.9,4.43,2.08.24,3,.24,3C57.44,121.62,55.93,122.9,55.51,123.73Z"/><path class="cls-2" d="M95.84,132.38c-4.19.5-6.37,1.88-7.5,3.1-4.2,1.15-19.51,2.43-30.2-7.75a1.46,1.46,0,0,1,.28-.82c10.9,7.8,24.69,6.11,27.65,5,3.25-1.17,10.23-1.43,10.23-1.43C98.86,132.14,95.84,132.38,95.84,132.38Z"/><path class="cls-2" d="M150.39,136.16s-25,29.38-60.45,4.85a3.64,3.64,0,0,1,.49-1.22c33.68,20.59,57.16-7,57.16-7,3.35-3.6-14-24.52-19.9-33a26.9,26.9,0,0,1,2.71,3.24C136.24,111.43,153.75,132.54,150.39,136.16Z"/><path class="cls-1" d="M135.29,127.26s-18.55-29.17,11.8-53c0,0,3.54,1.62,2.21,8.84,0,0-.59,2.65,1.47.88,0,0,1.63-6,1.48-9.13s2.51-17.53,14.59-24.3c0,0,2.65.59-.15,6.92,0,0-.29,3.83,2.65.59s-3.67-12.22,15.33-23.85c0,0,2.21,1.32,1.92,5.15s2.06-1.76,2.06-1.76,3.51-25.66,30.09-25.77c.14,0,.42.14.41,0h0s7.21,16.36-10.62,37.71c0,0-4,1.62-.15,1.91a3.72,3.72,0,0,1,3.83.3c2.21,1.33-2.51,22.54-15.18,21.94a5.93,5.93,0,0,0,7.51,2.51c5.16-1.91-7.52,22.53-17.83,21.35s-8.4,4-8.4,4,6.78-2.94,8.84.3-9.58,14.28-18.28,17.08S137.49,131.09,135.29,127.26Z"/><path class="cls-4" d="M124.92,141s-33.74-7.51-29.14-45.84c0,0,3.64-1.35,7.81,4.69,0,0,1.45,2.29,1.66-.42,0,0-3.12-5.41-5.41-7.5S89.22,77.76,93,64.43c0,0,2.29-1.46,4.79,5,0,0,2.5,2.92,2.29-1.45s-11.25-6.05-6-27.71c0,0,2.5-.63,5,2.29s.21-2.71.21-2.71S83.58,19.23,102.3.36c.1-.1.39-.2.29-.29h0s16.66,6.46,19.15,34.17c0,0-1.67,4,1.25,1.46a3.72,3.72,0,0,1,2.92-2.5c2.5-.62,14.15,17.71,4.78,26.25a5.93,5.93,0,0,0,7.08-3.54c2.29-5,10.62,21.26,2.49,27.71s-3.13,8.75-3.13,8.75,2.71-6.88,6.46-6,3.32,16.87-.85,25S129.19,142.15,124.92,141Z"/><path class="cls-2" d="M107.44,131.4c-7.39-6.8-13.85-18.05-11.66-36.24,0,0,3.18-1.18,7,3.59C100,96.65,98,97.4,98,97.4,96.06,113.72,101.05,124.46,107.44,131.4Z"/><path class="cls-2" d="M110.94,6.44a22,22,0,0,0-6.11-4.13c.11.09-.2.19-.29.29-18.72,18.87-3.06,39.49-3.06,39.49s2.29,5.63-.21,2.71-5-2.29-5-2.29c-5.22,21.66,5.83,23.33,6,27.71S100,71.68,100,71.68c-.19-.49-.38-.93-.56-1.33.39-.14.69-.76.61-2.37-.2-4.38-11.25-6.05-6-27.71,0,0,2.5-.62,5,2.29s.21-2.71.21-2.71S83.58,19.23,102.3.36c.09-.1.4-.2.29-.29A24.85,24.85,0,0,1,110.94,6.44Z"/><path class="cls-2" d="M107.5,101.68c-.22,2.7-1.67.41-1.67.41-.35-.5-.7-1-1-1.37.21-.11.39-.47.45-1.28,0,0-3.12-5.43-5.41-7.51S89.22,77.76,93,64.43c0,0,1.54-1,3.47,2.22a1.45,1.45,0,0,0-1.23,0c-3.76,13.33,4.57,25.42,6.86,27.5S107.5,101.68,107.5,101.68Z"/><path class="cls-4" d="M114.44,137.11s8.58,33.49,46.74,27.68c0,0,1.24-3.69-4.93-7.66,0,0-2.34-1.38.36-1.68,0,0,5.52,3,7.67,5.17s14.5,10.17,27.71,6c0,0,1.38-2.33-5.15-4.62,0,0-3-2.41,1.38-2.34s6.4,11,27.88,5.15c0,0,.55-2.52-2.45-4.92s2.7-.3,2.7-.3,21.11,15,39.38-4.3c.1-.1.19-.4.29-.31h0s-7-16.45-34.77-18.06c0,0-3.9,1.8-1.49-1.2a3.72,3.72,0,0,0,2.4-3c.55-2.52-18.15-13.59-26.39-3.95a5.93,5.93,0,0,1,3.32-7.19c4.92-2.45-21.58-9.94-27.77-1.62s-8.65,3.41-8.65,3.41,6.78-2.93,5.83-6.65-17-2.79-25,1.63S113.16,132.88,114.44,137.11Z"/><path class="cls-2" d="M187.15,101.8c2.06,3.24-9.58,14.29-18.28,17.08s-31.38,12.21-33.59,8.38a26.66,26.66,0,0,1-1.37-2.56c5.61,1,24.43-6.69,32.16-9.18,7.43-2.39,17-10.79,18.36-15.21A3.48,3.48,0,0,1,187.15,101.8Z"/><path class="cls-2" d="M186.71,97.53a21.09,21.09,0,0,0-3.57-.16c-2.73-1.36-7.63.77-7.63.77s-1.91-5.16,8.4-4c7.27.84,15.72-11.09,18.26-17.51a7.45,7.45,0,0,0,2.37-.48C209.7,74.27,197,98.71,186.71,97.53Z"/><path class="cls-2" d="M201.65,72.85a5.93,5.93,0,0,1-7.42-2.54c10.22.48,15.28-13.25,15.68-19.26a4.4,4.4,0,0,1,2.3.68C214.13,52.88,210.83,69,201.65,72.85Z"/><path class="cls-2" d="M118.94,30.88c-1.06-11.84-4.71-19.8-8.54-25,4.31,4.53,9.14,12.25,10.93,24.84a3.28,3.28,0,0,0-1.14,1.65C117.27,34.84,118.94,30.88,118.94,30.88Z"/><path class="cls-2" d="M127,33.65c3,2.31,9,12.8,6.76,20.74a6,6,0,0,1-5.9,1.7C134.44,50.12,130.72,39.37,127,33.65Z"/><path class="cls-2" d="M137.46,80.26c5.61-4.46,3.38-18.35.71-24.88,2.62-1.77,9.37,20.67,2.75,27.63l-.13,0c-3.75-.84-6.46,6-6.46,6S129.33,86.71,137.46,80.26Z"/><path class="cls-2" d="M142.74,111.33c-4.16,8.12-13.55,30.82-17.82,29.67,0,0-13.49-3-22.24-14.89a42.19,42.19,0,0,0,19.44,11.53c4.27,1.15,13.66-21.55,17.82-29.67,3.1-6,4.13-16.41,2.93-21.71a3,3,0,0,1,.72.07C147.34,87.17,146.92,103.21,142.74,111.33Z"/><path class="cls-2" d="M120.39,160.8s-1.07-1.33-.28-3.93c26.11-6.61,27.19-28.91,27.05-34.32,1.67.64,2.7,1.35,2.75,2.18C149.91,124.73,152.85,154.24,120.39,160.8Z"/><path class="cls-2" d="M161.19,164.79c-21.55,3.28-33.66-6-40.13-14.64,6.95,7.5,18.56,14.13,37.33,11.28a4.41,4.41,0,0,0-.45-3.08C162.18,161.82,161.19,164.79,161.19,164.79Z"/><path class="cls-2" d="M192,166.61c-13.21,4.18-25.55-3.76-27.71-6s-7.67-5.18-7.67-5.18a3.74,3.74,0,0,0-.77.15,17,17,0,0,0-2.39-1.83s-2.34-1.38.36-1.68c0,0,5.52,2.95,7.67,5.18s14.5,10.16,27.71,6a.92.92,0,0,0,.09-.23C193,164.93,192,166.61,192,166.61Z"/><path class="cls-2" d="M216.1,164.8c-21.48,5.9-23.5-5.08-27.88-5.15a6.18,6.18,0,0,0-1.52.12,18.67,18.67,0,0,0-2.66-1.14s-3-2.41,1.38-2.34,6.4,11.05,27.88,5.15a4,4,0,0,0-.29-2.14,7.57,7.57,0,0,0,.65.58C216.65,162.28,216.1,164.8,216.1,164.8Z"/><path class="cls-2" d="M256,155c-.1-.1-.19.21-.29.31-18.27,19.3-39.38,4.3-39.38,4.3s-3.28-1.22-3.55-.75a7,7,0,0,0-1.94-2.32c-3-2.4,2.69-.29,2.69-.29s21.11,15,39.38-4.3c.1-.1.19-.41.29-.31a16.74,16.74,0,0,0-1.61-2.7A22.43,22.43,0,0,1,256,155Z"/><path class="cls-2" d="M212.8,158.83a3.11,3.11,0,0,1,.21.47C212.81,159.07,212.75,158.92,212.8,158.83Z"/><path class="cls-5" d="M215.82,336.77,213.3,338H104c-15.59-80.79,22-213.77,22-213.77l19.91,11.49C122,235.14,215.82,336.77,215.82,336.77Z"/><path class="cls-6" d="M215.82,336.77,213.3,338h-4.48l2.52-1.23s-93.87-101.63-70-201l-16.05-9.26c.4-1.46.62-2.23.62-2.23l19.91,11.49C122,235.14,215.82,336.77,215.82,336.77Z"/><circle class="cls-7" cx="120.62" cy="130.54" r="13.76"/><circle class="cls-7" cx="141.1" cy="144.47" r="13.76"/><path class="cls-8" d="M154.86,144.47A13.76,13.76,0,0,1,130,152.62,13.76,13.76,0,0,0,147.7,132.4,13.75,13.75,0,0,1,154.86,144.47Z"/><circle class="cls-7" cx="146.1" cy="127.74" r="13.76"/><path class="cls-8" d="M134.38,130.55a13.76,13.76,0,0,1-24.84,8.15,13.76,13.76,0,0,0,17.69-20.22A13.74,13.74,0,0,1,134.38,130.55Z"/><path class="cls-8" d="M159.85,127.75A13.75,13.75,0,0,1,135,135.89a13.58,13.58,0,0,0,6.6,1.69,13.76,13.76,0,0,0,11.08-21.91A13.77,13.77,0,0,1,159.85,127.75Z"/></svg>