<svg id="圖層_1" data-name="圖層 1" xmlns="http://www.w3.org/2000/svg" viewBox="0 0 256 338"><defs><style>.cls-1{fill:#7b4d36;}.cls-2{fill:#663b28;}.cls-3{fill:#67b300;}.cls-4{fill:#2d8e3d;}.cls-5{fill:#5fa500;}.cls-6{fill:#66b003;}.cls-7{fill:#f1eac1;}.cls-8{fill:#ddd3a4;}</style></defs><title>tree</title><path class="cls-1" d="M188.2,339H83c24-33.36,42.88-147.77,42.88-147.77s.54-3.06,1.4-7.46h10.26c-.1,2.36-.21,4.87-.35,7.54C133.58,262.91,173.2,320.07,188.2,339Z"/><path class="cls-2" d="M188.2,339h-3c-15-18.93-54.62-76.09-51-147.69q.19-4,.34-7.54h3c-.1,2.36-.21,4.87-.35,7.54C133.58,262.91,173.2,320.07,188.2,339Z"/><path class="cls-3" d="M144.5,179.09s2.2,22-22,26.92c0,0-1.55-1.95,1.29-5.69,0,0,1.1-1.35-.59-.93a26.56,26.56,0,0,0-3.47,4.79c-.81,1.81-6.49,9.3-15.35,9.69,0,0-1.35-1.1,2.08-3.91,0,0,1.27-2.11-1.35-1.1s-1.42,8-15.64,9.22c0,0-.88-1.4.4-3.5s-1.69.42-1.69.42-9.4,13.66-24.63,6.06c-.08,0-.2-.2-.24-.12h0s.59-11.43,16.94-18.5c0,0,2.74.22.64-1.05a2.39,2.39,0,0,1-2.11-1.28c-.88-1.39,7.93-12.16,15-8.17a3.8,3.8,0,0,0-3.57-3.6c-3.5-.39,10.8-10.72,16.35-7.07s6,.15,6,.15-4.72-.27-5-2.72,9.6-5.41,15.37-4.5S144.34,176.26,144.5,179.09Z"/><path class="cls-4" d="M87.74,212.07c-1.28,2.11-.4,3.5-.4,3.5l.39,0c-2,2.47-10.85,12.19-24.23,5.52-.07,0-.19-.2-.23-.12a9.73,9.73,0,0,1,.24-1.46c14,5.42,22.54-7,22.54-7S89,210,87.74,212.07Z"/><path class="cls-4" d="M102.25,211.36l.84-.05c-1.46,2.48-4,6-13.66,6.77a3.12,3.12,0,0,1,0-2.74c12-1.66,11.06-8,13.54-9s1.35,1.1,1.35,1.1C100.9,210.26,102.25,211.36,102.25,211.36Z"/><path class="cls-4" d="M121.66,197.81c-2.21,2.91-1.76,4.74-1.45,5.4a9.55,9.55,0,0,0-.52,1c-.81,1.81-6.49,9.3-15.35,9.69,0,0-1-.84,1-2.94a20.48,20.48,0,0,0,12.25-9.25,26.37,26.37,0,0,1,3.47-4.8C122.76,196.46,121.66,197.81,121.66,197.81Z"/><path class="cls-5" d="M144.86,187.62s-18.68,21.93-45.12,3.61c0,0,.42-3.21,6.5-3.92,0,0,2.25-.18.34-1.39,0,0-5.21.19-7.63,1.06S84.37,189.29,76,181.33c0,0-.18-2.26,5.55-1.58,0,0,3.13-.7-.18-2.26s-8.83,5.93-22.76-6.34c0,0,.52-2.09,3.64-2.79s-1.92-1.21-1.92-1.21-21.29,3.5-27.9-17.63c0-.11,0-.37-.1-.33h0s11.25-9.76,32.63-.8c0,0,2.27,2.77,1.56-.36a3.08,3.08,0,0,1-.7-3.12c.51-2.08,18.56-3.53,21.2,6.7a5,5,0,0,0,.15-6.6c-2.79-3.63,19.79.46,21.38,9s5.22,5.71,5.22,5.71-4-4.67-1.93-7.11,13.73,4.12,18.09,10.36S147.37,184.92,144.86,187.62Z"/><path class="cls-4" d="M60.17,165.85a5.39,5.39,0,0,0-2.86,1.51c-4.9.06-14.64-1-20.94-9.77,8.84,9.2,21.88,7,21.88,7S63.29,165.14,60.17,165.85Z"/><path class="cls-4" d="M74.05,178.34c-3.54.16-8.42-1-15.43-7.2a2.54,2.54,0,0,1,.25-.56c12.22,9.5,17.31,2.95,20.42,4.41,3.31,1.55.18,2.25.18,2.25C75.49,176.77,74.36,177.72,74.05,178.34Z"/><path class="cls-4" d="M104.15,184.8c-3.13.37-4.76,1.4-5.6,2.31C95.41,188,84,188.92,76,181.33a1.07,1.07,0,0,1,.21-.62c8.13,5.82,18.42,4.57,20.63,3.77,2.43-.88,7.64-1.07,7.64-1.07C106.4,184.62,104.15,184.8,104.15,184.8Z"/><path class="cls-4" d="M144.86,187.62s-18.67,21.93-45.12,3.62a2.79,2.79,0,0,1,.36-.92c25.15,15.37,42.67-5.21,42.67-5.21,2.5-2.69-10.43-18.3-14.85-24.59a19.86,19.86,0,0,1,2,2.41C134.3,169.16,147.37,184.92,144.86,187.62Z"/><path class="cls-5" d="M133.58,181s-13.84-21.78,8.82-39.58c0,0,2.64,1.21,1.64,6.6,0,0-.44,2,1.1.66a31.92,31.92,0,0,0,1.11-6.81c-.11-2.31,1.87-13.09,10.89-18.14,0,0,2,.44-.12,5.17,0,0-.22,2.86,2,.44s-2.74-9.13,11.44-17.81c0,0,1.65,1,1.43,3.85s1.54-1.32,1.54-1.32S176,94.9,195.87,94.82c.1,0,.31.1.31,0h0s5.38,12.2-7.93,28.14c0,0-3,1.2-.11,1.43a2.78,2.78,0,0,1,2.86.22c1.64,1-1.88,16.82-11.33,16.37a4.41,4.41,0,0,0,5.6,1.87c3.85-1.42-5.61,16.82-13.31,15.94s-6.27,3-6.27,3,5.06-2.19,6.6.23-7.15,10.66-13.64,12.74S135.23,183.83,133.58,181Z"/><path class="cls-6" d="M125.85,191.23S100.67,185.62,104.1,157c0,0,2.72-1,5.83,3.5,0,0,1.09,1.71,1.24-.31a31.6,31.6,0,0,0-4-5.6c-1.71-1.55-7.92-10.57-5.12-20.52,0,0,1.71-1.09,3.57,3.73,0,0,1.87,2.18,1.72-1.09s-8.4-4.51-4.5-20.68c0,0,1.86-.46,3.73,1.71s.15-2,.15-2S95,100.35,109,86.27c.07-.08.29-.15.21-.22h0s12.44,4.83,14.3,25.5c0,0-1.25,3,.93,1.09a2.76,2.76,0,0,1,2.18-1.86c1.86-.47,10.56,13.22,3.56,19.59a4.43,4.43,0,0,0,5.29-2.64c1.71-3.73,7.92,15.86,1.86,20.68s-2.34,6.52-2.34,6.52,2-5.12,4.82-4.5,2.48,12.59-.63,18.65S129,192.09,125.85,191.23Z"/><path class="cls-4" d="M112.8,184.07c-5.51-5.08-10.33-13.47-8.7-27,0,0,2.37-.88,5.23,2.68-2-1.57-3.56-1-3.56-1C104.31,170.87,108,178.88,112.8,184.07Z"/><path class="cls-4" d="M115.42,90.8a16.77,16.77,0,0,0-4.57-3.08c.08.07-.14.15-.21.22-14,14.08-2.28,29.48-2.28,29.48s1.7,4.19-.16,2-3.73-1.71-3.73-1.71c-3.9,16.17,4.35,17.42,4.5,20.69s-1.71,1.08-1.71,1.08c-.15-.36-.28-.69-.42-1,.29-.1.51-.57.45-1.77-.15-3.26-8.39-4.51-4.49-20.68,0,0,1.86-.46,3.73,1.71s.15-2,.15-2S95,100.35,109,86.27c.07-.08.29-.15.21-.22A18.66,18.66,0,0,1,115.42,90.8Z"/><path class="cls-4" d="M112.84,161.88c-.15,2-1.24.31-1.24.31-.26-.37-.52-.72-.77-1,.16-.08.3-.35.34-1a31.23,31.23,0,0,0-4-5.6c-1.71-1.56-7.92-10.57-5.12-20.52,0,0,1.15-.73,2.59,1.65a1.07,1.07,0,0,0-.92,0c-2.8,10,3.41,19,5.12,20.52A31.6,31.6,0,0,1,112.84,161.88Z"/><path class="cls-6" d="M118,188.32s6.4,25,34.88,20.66c0,0,.93-2.75-3.68-5.71,0,0-1.74-1,.27-1.25a31.43,31.43,0,0,1,5.73,3.86c1.6,1.66,10.82,7.58,20.67,4.47,0,0,1-1.75-3.84-3.46,0,0-2.24-1.79,1-1.74s4.78,8.24,20.81,3.84c0,0,.41-1.88-1.83-3.67s2-.22,2-.22,15.75,11.19,29.39-3.22c.07-.07.13-.29.21-.22h0s-5.22-12.28-25.95-13.48c0,0-2.91,1.34-1.11-.9a2.75,2.75,0,0,0,1.79-2.23c.41-1.88-13.54-10.15-19.69-3a4.43,4.43,0,0,1,2.47-5.37c3.68-1.83-16.1-7.41-20.73-1.2s-6.45,2.54-6.45,2.54,5.07-2.18,4.35-5-12.66-2.08-18.62,1.22S117.07,185.17,118,188.32Z"/><path class="cls-4" d="M172.29,162c1.54,2.42-7.15,10.67-13.64,12.75s-23.42,9.11-25.07,6.25a21.1,21.1,0,0,1-1-1.9c4.18.77,18.23-5,24-6.86,5.54-1.78,12.69-8.05,13.7-11.35A2.61,2.61,0,0,1,172.29,162Z"/><path class="cls-4" d="M172,158.79a15.11,15.11,0,0,0-2.66-.12c-2-1-5.69.57-5.69.57s-1.43-3.84,6.26-3c5.43.62,11.74-8.27,13.63-13.07a5.41,5.41,0,0,0,1.77-.36C189.12,141.43,179.66,159.67,172,158.79Z"/><path class="cls-4" d="M183.12,140.37a4.43,4.43,0,0,1-5.55-1.9c7.64.36,11.41-9.88,11.71-14.37a3.24,3.24,0,0,1,1.71.51C192.43,125.47,190,137.49,183.12,140.37Z"/><path class="cls-4" d="M121.39,109c-.8-8.83-3.52-14.77-6.38-18.68,3.22,3.39,6.82,9.15,8.16,18.55a2.42,2.42,0,0,0-.85,1.22C120.14,112,121.39,109,121.39,109Z"/><path class="cls-4" d="M127.43,111.11c2.22,1.73,6.71,9.56,5,15.48a4.44,4.44,0,0,1-4.41,1.27C133,123.41,130.18,115.38,127.43,111.11Z"/><path class="cls-4" d="M135.21,145.9c4.18-3.33,2.52-13.69.53-18.57,2-1.32,7,15.43,2,20.62l-.1,0c-2.79-.62-4.82,4.51-4.82,4.51S129.14,150.71,135.21,145.9Z"/><path class="cls-4" d="M139.15,169.08c-3.11,6.06-10.11,23-13.3,22.15a31.11,31.11,0,0,1-16.6-11.12,31.52,31.52,0,0,0,14.51,8.61c3.19.86,10.19-16.08,13.3-22.14,2.31-4.5,3.08-12.25,2.18-16.2a2,2,0,0,1,.54.05C142.58,151.05,142.26,163,139.15,169.08Z"/><path class="cls-4" d="M122.47,206a3.27,3.27,0,0,1-.21-2.94c19.48-4.93,20.29-21.57,20.19-25.61,1.24.48,2,1,2.05,1.63C144.5,179.09,146.7,201.11,122.47,206Z"/><path class="cls-4" d="M152.91,209c-16.07,2.45-25.12-4.44-29.94-10.92,5.19,5.59,13.85,10.55,27.85,8.41a3.24,3.24,0,0,0-.33-2.29C153.66,206.77,152.91,209,152.91,209Z"/><path class="cls-4" d="M175.9,210.34c-9.85,3.12-19.07-2.8-20.67-4.46A31.66,31.66,0,0,0,149.5,202a2.9,2.9,0,0,0-.58.12,11.14,11.14,0,0,0-1.78-1.37s-1.74-1,.27-1.25a31.43,31.43,0,0,1,5.73,3.86c1.61,1.66,10.82,7.59,20.67,4.47a.84.84,0,0,0,.07-.18C176.65,209.09,175.9,210.34,175.9,210.34Z"/><path class="cls-4" d="M193.9,209c-16,4.41-17.54-3.79-20.81-3.84a4.34,4.34,0,0,0-1.13.09,14.15,14.15,0,0,0-2-.86s-2.24-1.79,1-1.74,4.78,8.25,20.81,3.84a2.92,2.92,0,0,0-.22-1.59c.11.11.27.25.48.43C194.31,207.11,193.9,209,193.9,209Z"/><path class="cls-4" d="M223.69,201.66c-.07-.08-.14.15-.22.23-13.63,14.4-29.38,3.21-29.38,3.21s-2.46-.91-2.65-.56a5.22,5.22,0,0,0-1.46-1.73c-2.23-1.79,2-.22,2-.22s15.75,11.19,29.38-3.21c.08-.08.15-.3.22-.23a12.29,12.29,0,0,0-1.2-2A17,17,0,0,1,223.69,201.66Z"/><path class="cls-4" d="M191.44,204.54a2.63,2.63,0,0,1,.15.35C191.44,204.71,191.4,204.6,191.44,204.54Z"/><circle class="cls-7" cx="137.92" cy="200.59" r="10.27"/><circle class="cls-7" cx="118.91" cy="198.5" r="10.27"/><path class="cls-8" d="M127.65,200.59a10.27,10.27,0,0,0,18.54,6.09A10.27,10.27,0,0,1,133,191.59,10.25,10.25,0,0,0,127.65,200.59Z"/><path class="cls-8" d="M108.64,198.5a10.27,10.27,0,0,0,18.54,6.08,10.12,10.12,0,0,1-4.93,1.26A10.26,10.26,0,0,1,114,189.49,10.28,10.28,0,0,0,108.64,198.5Z"/><circle class="cls-7" cx="131.59" cy="190.84" r="10.27"/><path class="cls-8" d="M121.32,190.83a10.27,10.27,0,0,0,18.55,6.08,10.16,10.16,0,0,1-4.93,1.27,10.27,10.27,0,0,1-10.27-10.27,10.16,10.16,0,0,1,2-6.08A10.24,10.24,0,0,0,121.32,190.83Z"/></svg>