<svg id="圖層_1" data-name="圖層 1" xmlns="http://www.w3.org/2000/svg" viewBox="0 0 230 230"><defs><style>.cls-1{fill:none;stroke:#ff6550;stroke-linejoin:round;stroke-width:2px;}</style></defs><title>ocean</title><ellipse class="cls-1" cx="113.73" cy="132.78" rx="55.02" ry="61.57"/><ellipse class="cls-1" cx="113.73" cy="132.78" rx="47.38" ry="53.02"/><line class="cls-1" x1="102.09" y1="72.59" x2="102.02" y2="72.42"/><path class="cls-1" d="M100.37,72.79l3.39-21s.57-54.73,31.92-43.9c0,0,44.48,16.53,23.38,44.47,0,0-9.12,14.1-18.81,11s-11.1,9.9-11.1,9.9l-.21.26"/><path class="cls-1" d="M164.6,109.26c24.34,2.39,29.32,34.62,29.32,34.62s17.77-34.2,0-52S151.73,87,151.73,87l-.61.58"/><path class="cls-1" d="M62.73,109.66c-22,4.38-26.65,34.22-26.65,34.22s-17.77-34.2,0-52c15.73-15.73,36.68-7.43,41.27-5.32"/><path class="cls-1" d="M66.74,223.49c-.33-.55-19.86-33.37,5.85-49.84"/><path class="cls-1" d="M66.75,223.5h0c-.53-.21-35.55-15-33.35-39.83,2-22.41,23.82-29.41,28.38-30.63"/><path class="cls-1" d="M154.37,174.29c24.23,16.67,5.19,48.66,4.87,49.2"/><path class="cls-1" d="M159.23,223.5h0c.53-.21,35.55-15,33.36-39.83-1.83-20.65-20.53-28.22-27-30.24"/><path class="cls-1" d="M119.83,194h0c-4.46,2.47-6.38,17.48-6.38,17.48-10.83-2.85-5.79-17.48-5.79-17.48"/><polygon class="cls-1" points="124.1 110.54 103.36 110.54 93 132.78 103.36 155.01 124.1 155.01 134.47 132.78 124.1 110.54"/><line class="cls-1" x1="103.19" y1="110.54" x2="90.64" y2="86.03"/><line class="cls-1" x1="124.28" y1="110.54" x2="136.82" y2="86.03"/><line class="cls-1" x1="134.54" y1="132.78" x2="161.34" y2="132.78"/><line class="cls-1" x1="124.28" y1="155.01" x2="136.25" y2="179.53"/><line class="cls-1" x1="103.19" y1="155.01" x2="92.92" y2="180.67"/><line class="cls-1" x1="92.92" y1="132.78" x2="66.13" y2="132.78"/><circle class="cls-1" cx="142.83" cy="36.27" r="4.06"/></svg>