<svg id="圖層_1" data-name="圖層 1" xmlns="http://www.w3.org/2000/svg" viewBox="0 0 90 21"><defs><style>.cls-1{fill:#fff;}</style></defs><title>ocean</title><path class="cls-1" d="M55.17,7.61h0c-3.11,0-4.7-1.53-6.11-2.88S46.63,2.4,44.33,2.4h0C42,2.4,40.9,3.48,39.6,4.72s-3,2.88-6.1,2.88h0c-3.11,0-4.7-1.54-6.11-2.89S25,2.39,22.66,2.39h0c-2.31,0-3.43,1.07-4.72,2.32s-3,2.87-6.11,2.87h0c-3.11,0-4.7-1.53-6.11-2.88S3.31,2.38,1,2.38a1,1,0,0,1,0-2H1c3.11,0,4.71,1.53,6.11,2.88s2.41,2.32,4.72,2.32h0c2.3,0,3.43-1.07,4.72-2.32s3-2.87,6.11-2.87h0c3.11,0,4.71,1.53,6.11,2.88s2.42,2.32,4.72,2.33h0c2.3,0,3.42-1.08,4.72-2.32S41.22.4,44.32.4h0c3.11,0,4.7,1.54,6.11,2.89s2.42,2.32,4.72,2.32h0c2.3,0,3.42-1.07,4.72-2.32S62.89.42,66,.42h0a1,1,0,0,1,0,2h0c-2.31,0-3.43,1.07-4.73,2.32S58.27,7.61,55.17,7.61Z"/><path class="cls-1" d="M78.16,20.62h0c-3.11,0-4.7-1.53-6.11-2.88s-2.41-2.32-4.72-2.32h0c-2.3,0-3.42,1.07-4.72,2.32s-3,2.87-6.1,2.87h0c-3.11,0-4.7-1.53-6.1-2.88S48,15.41,45.65,15.4h0c-2.3,0-3.42,1.08-4.72,2.32s-3,2.88-6.1,2.88h0c-3.11,0-4.7-1.54-6.11-2.89S26.3,15.39,24,15.39a1,1,0,0,1,0-2h0c3.11,0,4.7,1.53,6.1,2.88s2.42,2.33,4.72,2.33h0c2.3,0,3.42-1.08,4.71-2.32s3-2.88,6.11-2.88h0c3.11,0,4.7,1.54,6.1,2.89s2.42,2.32,4.73,2.32h0c2.3,0,3.42-1.07,4.72-2.32s3-2.87,6.1-2.87h0c3.11,0,4.7,1.53,6.11,2.88s2.42,2.32,4.73,2.32h0c2.3,0,3.42-1.07,4.72-2.31s3-2.88,6.11-2.88h0a1,1,0,0,1,0,2h0c-2.3,0-3.43,1.08-4.72,2.32S81.27,20.62,78.16,20.62Z"/></svg>