<svg id="圖層_1" data-name="圖層 1" xmlns="http://www.w3.org/2000/svg" viewBox="0 0 88 19"><defs><style>.cls-1{fill:#fff;}</style></defs><title>ocean</title><path class="cls-1" d="M76.17,7.62h0c-3.11,0-4.7-1.53-6.11-2.88s-2.42-2.32-4.72-2.32h0c-2.3,0-3.42,1.07-4.72,2.31s-3,2.88-6.1,2.88h0c-3.11,0-4.7-1.53-6.11-2.88S46,2.4,43.66,2.4h0c-2.31,0-3.43,1.08-4.72,2.32s-3,2.88-6.11,2.88h0c-3.11,0-4.7-1.54-6.11-2.89S24.31,2.39,22,2.39a1,1,0,0,1,0-2h0c3.11,0,4.7,1.53,6.11,2.88s2.41,2.32,4.72,2.33h0c2.31,0,3.43-1.08,4.72-2.32S40.55.4,43.66.4h0c3.11,0,4.7,1.53,6.11,2.89s2.42,2.32,4.72,2.32h0c2.3,0,3.42-1.07,4.72-2.32s3-2.87,6.1-2.87h0C68.44.42,70,2,71.44,3.3s2.41,2.32,4.72,2.32h0c2.3,0,3.42-1.07,4.72-2.32S83.89.43,87,.43h0a1,1,0,0,1,0,2h0c-2.31,0-3.43,1.07-4.73,2.32S79.27,7.62,76.17,7.62Z"/><path class="cls-1" d="M55.16,18.61h0c-3.11,0-4.7-1.53-6.1-2.88s-2.42-2.33-4.73-2.33h0c-2.3,0-3.42,1.08-4.71,2.32s-3,2.88-6.11,2.88h0c-3.11,0-4.7-1.54-6.1-2.89S25,13.39,22.65,13.39h0c-2.3,0-3.42,1.07-4.72,2.32s-3,2.87-6.1,2.87h0c-3.11,0-4.7-1.53-6.1-2.88S3.3,13.38,1,13.38a1,1,0,0,1,0-2H1c3.11,0,4.7,1.53,6.1,2.88s2.42,2.32,4.72,2.32h0c2.3,0,3.42-1.07,4.72-2.32s3-2.87,6.1-2.87h0c3.11,0,4.7,1.53,6.1,2.88s2.42,2.32,4.73,2.33h0c2.3,0,3.42-1.08,4.72-2.32s3-2.88,6.1-2.88h0c3.11,0,4.71,1.54,6.11,2.89s2.42,2.32,4.73,2.32h0c2.3,0,3.43-1.07,4.72-2.32s3-2.87,6.11-2.87h0a1,1,0,0,1,0,2h0c-2.3,0-3.42,1.07-4.72,2.32S58.27,18.61,55.16,18.61Z"/></svg>