<svg id="圖層_1" data-name="圖層 1" xmlns="http://www.w3.org/2000/svg" viewBox="0 0 125 25"><defs><style>.cls-1{fill:#fff;}</style></defs><title>ocean</title><path class="cls-1" d="M99,24.44h0c-3.54,0-5.33-2.29-6.9-4.31s-2.76-3.54-5.34-3.54h0c-2.57,0-3.85,1.64-5.34,3.53s-3.36,4.3-6.91,4.3h0c-3.55,0-5.33-2.29-6.91-4.31s-2.76-3.53-5.33-3.53h0c-2.57,0-3.85,1.63-5.33,3.53s-3.36,4.3-6.91,4.3h0c-3.55,0-5.34-2.29-6.91-4.31s-2.77-3.54-5.34-3.54h0c-2.58,0-3.86,1.64-5.34,3.53s-3.36,4.3-6.91,4.3h0c-3.55,0-5.34-2.29-6.92-4.31s-2.76-3.53-5.33-3.54h0c-2.57,0-3.85,1.64-5.34,3.54S4.55,24.38,1,24.38H1a1,1,0,0,1,0-2H1c2.57,0,3.86-1.64,5.34-3.53s3.37-4.31,6.91-4.31h0c3.55,0,5.33,2.29,6.91,4.31s2.76,3.54,5.34,3.54h0c2.57,0,3.85-1.63,5.34-3.53s3.36-4.3,6.91-4.3h0c3.55,0,5.34,2.29,6.91,4.31s2.76,3.54,5.34,3.54h0c2.57,0,3.85-1.64,5.34-3.53s3.36-4.3,6.9-4.3h0c3.55,0,5.33,2.29,6.91,4.3s2.76,3.54,5.33,3.54h0c2.58,0,3.86-1.63,5.34-3.53s3.36-4.3,6.91-4.3h0c3.55,0,5.34,2.29,6.91,4.31s2.76,3.54,5.34,3.54a1,1,0,0,1,0,2Z"/><path class="cls-1" d="M124,10.45h0c-3.55,0-5.33-2.29-6.91-4.3s-2.76-3.54-5.33-3.54h0c-2.57,0-3.85,1.63-5.34,3.53s-3.36,4.3-6.91,4.3h0c-3.55,0-5.34-2.29-6.91-4.31s-2.76-3.54-5.33-3.54h0c-2.57,0-3.85,1.64-5.33,3.53s-3.36,4.3-6.91,4.3h0c-3.56,0-5.34-2.29-6.92-4.31s-2.76-3.53-5.33-3.53h0c-2.57,0-3.85,1.63-5.33,3.53s-3.36,4.3-6.91,4.3h0c-3.56,0-5.34-2.29-6.92-4.31s-2.76-3.54-5.33-3.54h0c-2.57,0-3.85,1.64-5.34,3.53s-3.36,4.3-6.91,4.3a1,1,0,0,1-1-1,1,1,0,0,1,1-1h0c2.57,0,3.85-1.63,5.34-3.53S34.71.56,38.26.56h0c3.55,0,5.33,2.29,6.91,4.31s2.76,3.54,5.34,3.54h0c2.57,0,3.85-1.64,5.34-3.53s3.36-4.3,6.9-4.3h0c3.55,0,5.34,2.29,6.91,4.3S72.44,8.42,75,8.42h0c2.57,0,3.85-1.63,5.34-3.53s3.36-4.3,6.9-4.3h0c3.55,0,5.33,2.29,6.91,4.31s2.76,3.54,5.33,3.54h0c2.57,0,3.85-1.64,5.34-3.53s3.36-4.3,6.91-4.3h0c3.55,0,5.34,2.29,6.91,4.31s2.76,3.53,5.33,3.53a1,1,0,0,1,1,1A1,1,0,0,1,124,10.45Z"/></svg>