<svg id="圖層_1" data-name="圖層 1" xmlns="http://www.w3.org/2000/svg" viewBox="0 0 44 10"><defs><style>.cls-1{fill:#fff;}</style></defs><title>ocean</title><path class="cls-1" d="M35.66,5.46h0a5.5,5.5,0,0,1-4.11-1.92,3.58,3.58,0,0,0-2.73-1.37h0A3.55,3.55,0,0,0,26.1,3.53,5.47,5.47,0,0,1,22,5.45h0a5.5,5.5,0,0,1-4.11-1.92,3.56,3.56,0,0,0-2.72-1.36h0a3.55,3.55,0,0,0-2.72,1.36A5.49,5.49,0,0,1,8.33,5.44h0A5.47,5.47,0,0,1,4.22,3.52,3.56,3.56,0,0,0,1.5,2.16a1,1,0,0,1,0-2h0A5.47,5.47,0,0,1,5.61,2.08,3.55,3.55,0,0,0,8.33,3.44h0a3.56,3.56,0,0,0,2.72-1.36A5.49,5.49,0,0,1,15.16.17h0a5.47,5.47,0,0,1,4.11,1.92A3.55,3.55,0,0,0,22,3.45h0a3.56,3.56,0,0,0,2.72-1.36A5.5,5.5,0,0,1,28.82.17h0a5.5,5.5,0,0,1,4.11,1.92,3.56,3.56,0,0,0,2.73,1.37h0A3.58,3.58,0,0,0,38.39,2.1,5.5,5.5,0,0,1,42.5.18h0a1,1,0,0,1,0,2h0a3.57,3.57,0,0,0-2.73,1.36A5.47,5.47,0,0,1,35.66,5.46Z"/></svg>